<svg viewBox="0 0 1920 150" height="150" width="1920" xmlns="http://www.w3.org/2000/svg" version="1.1"><g transform-origin="center" transform="scale(1, 1) rotate(0)"><rect x="0" y="0" width="1920" height="150" fill="#00243800"></rect><linearGradient id="linear-gradient-r0"><stop offset="0%" stop-color="#E7882B" stop-opacity="100%"></stop><stop offset="100%" stop-color="#E7882B" stop-opacity="100%"></stop></linearGradient><filter id="shadow-r0" x="0" width="100%" y="-20%" height="150%"><feDropShadow dx="15" dy="3" stdDeviation="8" flood-color="#00000061"></feDropShadow></filter><path d="M0 0 0,63.06789341464173 C 27.42857142857143,63.01319918842055 82.28571428571428,62.055819797725434 137.14285714285714,62.79442228353582 C 192,63.53302476934623 219.4285714285714,66.87966814781541 274.2857142857143,66.76090584369376 C 329.14285714285717,66.64214353957213 356.57142857142856,63.752380148065285 411.42857142857144,62.20061076292768 C 466.28571428571433,60.648841377790085 493.7142857142857,61.64653253329453 548.5714285714286,59.00205891800579 C 603.4285714285714,56.357585302717055 630.8571428571428,50.419103307696076 685.7142857142857,48.97824268648401 C 740.5714285714286,47.537382065271956 768,51.06836156866049 822.8571428571429,51.797755811945535 C 877.7142857142858,52.52715005523059 905.1428571428571,51.27699621976355 960,52.62521390290931 C 1014.8571428571429,53.973431586055085 1042.2857142857142,57.318697518529376 1097.142857142857,58.53884422767442 C 1152,59.758990936819465 1179.4285714285713,59.5599277313333 1234.2857142857142,58.72594744863454 C 1289.142857142857,57.89196716593578 1316.5714285714284,54.15547397139018 1371.4285714285713,54.36894281418063 C 1426.2857142857142,54.58241165697109 1453.7142857142856,59.17004346605391 1508.5714285714284,59.79329166258685 C 1563.4285714285713,60.4165398591198 1590.857142857143,58.76626602918842 1645.7142857142858,57.48518379684538 C 1700.5714285714287,56.204101564502345 1728,52.67247595195659 1782.857142857143,53.38788050087169 C 1837.7142857142858,54.10328504978679 1892.5714285714287,59.52734133331106 1920,61.06220654142089 L1920 150 L0 150Z" fill="none" stroke-linecap="round" filter="url(#shadow-r0)" stroke-width="1" style="transition: all 0.4s cubic-bezier(0.16, 1, 0.3, 1) 0s; fill: url(&quot;#linear-gradient-r0&quot;);"></path><path d="M0 0 0,94.9966901212465 C 27.42857142857143,96.19680565996096 82.28571428571428,101.1769338646438 137.14285714285714,100.99726781481877 C 192,100.81760176499374 219.42857142857142,96.4459084291244 274.2857142857143,94.09835987212136 C 329.14285714285717,91.75081131511834 356.57142857142856,93.26013896062506 411.42857142857144,89.25952502980363 C 466.28571428571433,85.25891109898221 493.7142857142857,76.27505372189918 548.5714285714286,74.09529021801427 C 603.4285714285714,71.91552671412937 630.8571428571428,77.25726493720431 685.7142857142857,78.36070751037914 C 740.5714285714286,79.46415008355397 768,77.57289171707818 822.8571428571429,79.61250308388844 C 877.7142857142858,81.65211445069872 905.1428571428571,86.71290137418546 960,88.55876434443053 C 1014.8571428571429,90.4046273146756 1042.2857142857142,90.10348041406833 1097.142857142857,88.8418179351138 C 1152,87.58015545615926 1179.4285714285713,81.9275119054364 1234.2857142857142,82.25045194965787 C 1289.142857142857,82.57339199387934 1316.5714285714284,89.51365549992772 1371.4285714285713,90.45651815622114 C 1426.2857142857142,91.39938081251458 1453.7142857142856,88.90281271082351 1508.5714285714284,86.96476523112506 C 1563.4285714285713,85.02671775142662 1590.857142857143,79.6840020811651 1645.7142857142858,80.76628075772896 C 1700.5714285714287,81.84855943429284 1728,89.78422801881098 1782.857142857143,92.37615861394443 C 1837.7142857142858,94.96808920907787 1892.5714285714287,93.45597870950587 1920,93.72593373339623 L1920 150 L0 150Z" fill="none" stroke-linecap="round" filter="url(#shadow-r0)" stroke-width="1" style="transition: all 0.4s cubic-bezier(0.16, 1, 0.3, 1) 0s; fill: url(&quot;#linear-gradient-r0&quot;);"></path><path d="M0 0 0,135.23362978594378 C 27.42857142857143,133.38612562501802 82.28571428571428,129.1394367101835 137.14285714285714,125.99610898131505 C 192,122.85278125244659 219.42857142857142,124.87374538795557 274.2857142857143,119.51699114160147 C 329.14285714285717,114.16023689524737 356.5714285714286,102.13100413610228 411.42857142857144,99.21233774954453 C 466.2857142857143,96.29367136298679 493.7142857142857,103.44616830574815 548.5714285714286,104.92365920881275 C 603.4285714285714,106.40115011187736 630.8571428571428,103.86878721439281 685.7142857142857,106.59979226486757 C 740.5714285714286,109.33079731534235 768,116.10710522984155 822.8571428571429,118.57868446118664 C 877.7142857142858,121.05026369253173 905.1428571428571,120.64703309680336 960,118.95768842159305 C 1014.8571428571429,117.26834374638274 1042.2857142857142,109.69954983948264 1097.142857142857,110.13196108513512 C 1152,110.56437233078759 1179.4285714285713,119.8572675338015 1234.2857142857142,121.11974464985542 C 1289.142857142857,122.38222176590935 1316.5714285714284,119.03935939245856 1371.4285714285713,116.44434666540474 C 1426.2857142857142,113.8493339383509 1453.7142857142856,106.69552821037361 1508.5714285714284,108.14468101458624 C 1563.4285714285713,109.59383381879888 1590.857142857143,120.2195595506113 1645.7142857142858,123.69011068646796 C 1700.5714285714287,127.16066182232461 1728,127.33997912406923 1782.857142857143,125.49743669386953 C 1837.7142857142858,123.65489426366985 1892.5714285714287,116.68140616714955 1920,114.47739853546955 L1920 150 L0 150Z" fill="none" stroke-linecap="round" filter="url(#shadow-r0)" stroke-width="1" style="transition: all 0.4s cubic-bezier(0.16, 1, 0.3, 1) 0s; fill: url(&quot;#linear-gradient-r0&quot;);"></path><path d="M0 0 0,157.89385809050873 C 27.428571428571427,156.26997792308686 82.28571428571428,156.4873518152861 137.14285714285714,149.7744572533993 C 192,143.0615626915125 219.42857142857142,127.98695455030538 274.2857142857143,124.32938528107479 C 329.14285714285717,120.6718160118442 356.57142857142856,129.635071674292 411.42857142857144,131.48661090724636 C 466.28571428571433,133.33815014020075 493.7142857142857,130.16468271170743 548.5714285714286,133.5870814458467 C 603.4285714285714,137.00948017998599 630.8571428571428,145.50130908549764 685.7142857142857,148.59860457794275 C 740.5714285714286,151.69590007038786 768,151.1905857795384 822.8571428571429,149.0735589080723 C 877.7142857142858,146.95653203660623 905.1428571428571,137.47158777352888 960,138.01347022061236 C 1014.8571428571429,138.55535266769584 1042.2857142857142,150.20087956767532 1097.142857142857,151.7829711434897 C 1152,153.36506271930412 1179.4285714285713,149.17590607409366 1234.2857142857142,145.92392809968442 C 1289.142857142857,142.67195012527517 1316.5714285714284,133.7070543395821 1371.4285714285713,135.52308127144352 C 1426.2857142857142,137.33910820330493 1453.7142857142856,150.65489108241164 1508.5714285714284,155.0040627589915 C 1563.4285714285713,159.35323443557135 1590.857142857143,159.57794852256777 1645.7142857142858,157.26893965434283 C 1700.5714285714287,154.95993078611792 1728,149.58321857827252 1782.857142857143,143.4590184178669 C 1837.7142857142858,137.3348182574613 1892.5714285714287,130.01015476542526 1920,126.64793885231484 L1920 150 L0 150Z" fill="none" stroke-linecap="round" filter="url(#shadow-r0)" stroke-width="1" style="transition: all 0.4s cubic-bezier(0.16, 1, 0.3, 1) 0s; fill: url(&quot;#linear-gradient-r0&quot;);"></path><path d="M0 0 0,180.03192336519714 C 27.42857142857143,173.91482525467873 82.28571428571428,153.84290496450848 137.14285714285714,149.44643281260505 C 192,145.04996066070163 219.42857142857142,155.82397504283583 274.2857142857143,158.04956260567997 C 329.1428571428571,160.27515016852414 356.57142857142856,156.46057820902206 411.42857142857144,160.57437062682584 C 466.28571428571433,164.68816304462962 493.7142857142857,174.89551294115373 548.5714285714286,178.61852469469886 C 603.4285714285714,182.341536448244 630.8571428571428,181.73413846227342 685.7142857142857,179.18942939455155 C 740.5714285714286,176.6447203268297 768,165.24362570757512 822.8571428571429,165.8949793560896 C 877.7142857142858,166.5463330046041 905.1428571428571,180.5444916015491 960,182.446197637124 C 1014.8571428571429,184.3479036726989 1042.2857142857142,179.31245275572874 1097.142857142857,175.4035095339641 C 1152,171.49456631219945 1179.4285714285713,160.7185804687906 1234.2857142857142,162.9014815283008 C 1289.142857142857,165.08438258781098 1316.5714285714284,181.09022261421197 1371.4285714285713,186.31801483151503 C 1426.2857142857142,191.5458070488181 1453.7142857142856,191.8159179210663 1508.5714285714284,189.04044261481613 C 1563.4285714285713,186.26496730856599 1590.857142857143,179.80205061428714 1645.7142857142858,172.44063830026425 C 1700.5714285714287,165.07922598624137 1728,148.015441823937 1782.857142857143,152.23338104470167 C 1837.7142857142858,156.45132026546634 1892.5714285714287,185.27094373221044 1920,193.53033440408763 L1920 150 L0 150Z" fill="none" stroke-linecap="round" filter="url(#shadow-r0)" stroke-width="1" style="transition: all 0.4s cubic-bezier(0.16, 1, 0.3, 1) 0s; fill: url(&quot;#linear-gradient-r0&quot;);"></path></g></svg>