<svg width="261" height="79" viewBox="0 0 261 79" fill="none" xmlns="http://www.w3.org/2000/svg">
<ellipse cx="40.12" cy="39.5" rx="40.12" ry="39.5" fill="#FFCC78"/>
<path d="M66.583 36.7227C68.2399 36.7227 69.6045 35.373 69.3749 33.7321C68.7163 29.0258 66.5158 24.6274 63.065 21.2298C58.8915 17.1209 53.2311 14.8125 47.329 14.8125C41.4269 14.8125 35.7665 17.1209 31.593 21.2298C28.1422 24.6274 25.9417 29.0258 25.2831 33.7321C25.0535 35.373 26.4181 36.7227 28.075 36.7227L47.329 36.7227H66.583Z" fill="#F19239"/>
<path d="M15.517 35.254C15.8107 34.8202 16.2964 34.5557 16.8202 34.5442L28.8423 34.2812C29.5269 34.2662 30.0899 34.8171 30.0899 35.5018C30.0899 36.1761 29.5433 36.7227 28.869 36.7227H22.5674H18.8062H16.1659C15.5973 36.7227 15.1809 36.1873 15.3208 35.6362C15.3457 35.5383 15.3873 35.4455 15.4439 35.3619L15.517 35.254Z" fill="#F19239"/>
<path d="M50.6171 39.2939C50.8296 38.2775 52.0549 37.8623 52.8416 38.54C53.2918 38.9279 53.439 39.5627 53.2053 40.1091L48.8063 50.3953C48.659 50.7397 48.439 51.0482 48.1614 51.2996L42.125 56.7673C41.7558 57.1018 41.1834 56.7262 41.3431 56.2544C41.3633 56.1948 41.395 56.1396 41.4363 56.0921L48.3825 48.1135C48.7193 47.7266 48.9513 47.2598 49.0563 46.7577L50.6171 39.2939Z" fill="#E2E2E2"/>
<path d="M49.4355 38.0853C48.7167 37.5545 49.0921 36.4141 49.9857 36.4141C50.1936 36.4141 50.3954 36.484 50.5587 36.6126L53.0855 38.6029C53.3158 38.7842 53.6003 38.8828 53.8934 38.8828C54.385 38.8828 54.835 38.6067 55.0576 38.1684L55.6786 36.9455C55.8442 36.6195 56.1788 36.4141 56.5445 36.4141C57.0809 36.4141 57.5157 36.8489 57.5157 37.3852V39.153C57.5157 39.584 57.414 40.0089 57.2188 40.3932L56.6145 41.5831C56.4862 41.8358 56.294 42.0506 56.057 42.2061C55.2468 42.7379 54.1541 42.4472 53.7153 41.5831L53.6327 41.4205C53.5066 41.1723 53.3243 40.9568 53.1003 40.7914L49.4355 38.0853Z" fill="#6C6C6C"/>
<path d="M39.2487 38.0853C38.5299 37.5545 38.9053 36.4141 39.7989 36.4141C40.0068 36.4141 40.2087 36.484 40.372 36.6126L42.8988 38.6029C43.129 38.7842 43.4136 38.8828 43.7067 38.8828C44.1983 38.8828 44.6482 38.6067 44.8708 38.1684L45.4918 36.9455C45.6574 36.6195 45.9921 36.4141 46.3577 36.4141C46.8941 36.4141 47.3289 36.8489 47.3289 37.3852V39.153C47.3289 39.584 47.2272 40.0089 47.032 40.3932L46.4277 41.5831C46.2994 41.8358 46.1072 42.0506 45.8703 42.2061C45.06 42.7379 43.9674 42.4472 43.5285 41.5831L43.446 41.4205C43.3199 41.1723 43.1376 40.9568 42.9136 40.7914L39.2487 38.0853Z" fill="#6C6C6C"/>
<path d="M42.028 40.6425C42.1729 39.7509 43.1197 39.2354 43.9472 39.5975C44.6152 39.8898 44.9415 40.6505 44.6928 41.3359L42.093 48.5029C42.0315 48.6725 41.9854 48.8473 41.9553 49.0252L41.4157 52.2123C41.3877 52.3778 41.3737 52.5453 41.3737 52.7131V55.7703C41.3737 56.0222 41.2726 56.2636 41.0931 56.4403C40.4986 57.0256 39.493 56.6045 39.493 55.7703V53.5975C39.493 53.4574 39.5089 53.3178 39.5405 53.1813L41.0602 46.5977L42.028 40.6425Z" fill="#C4C4C4"/>
<ellipse cx="40.4334" cy="57.0898" rx="1.56719" ry="1.54297" fill="#ED1717"/>
<path d="M89.1366 43.0073L97.0223 30.2266H100.086V48H97.0223V35.207L89.1366 48H86.0848V30.2266H89.1366V43.0073ZM115.504 37.6484V40.0776H106.068V37.6484H115.504ZM106.825 30.2266V48H103.761V30.2266H106.825ZM117.86 30.2266V48H114.808V30.2266H117.86ZM132.008 42.2139H135.059C134.962 43.3776 134.636 44.4152 134.083 45.3267C133.53 46.23 132.752 46.9421 131.751 47.4629C130.75 47.9837 129.534 48.2441 128.101 48.2441C127.003 48.2441 126.014 48.0488 125.135 47.6582C124.256 47.2594 123.503 46.6979 122.877 45.9736C122.25 45.2412 121.77 44.3582 121.436 43.3247C121.111 42.2912 120.948 41.1356 120.948 39.8579V38.3809C120.948 37.1032 121.115 35.9476 121.449 34.9141C121.79 33.8805 122.279 32.9976 122.913 32.2651C123.548 31.5246 124.309 30.959 125.196 30.5684C126.091 30.1777 127.096 29.9824 128.211 29.9824C129.627 29.9824 130.824 30.2428 131.8 30.7637C132.777 31.2845 133.534 32.0047 134.071 32.9243C134.616 33.8439 134.95 34.8978 135.072 36.0859H132.02C131.939 35.321 131.759 34.6659 131.483 34.1206C131.214 33.5754 130.815 33.1603 130.286 32.8755C129.758 32.5825 129.066 32.436 128.211 32.436C127.511 32.436 126.901 32.5662 126.38 32.8267C125.859 33.0871 125.424 33.4696 125.074 33.9741C124.724 34.4787 124.46 35.1012 124.281 35.8418C124.11 36.5742 124.024 37.4124 124.024 38.3564V39.8579C124.024 40.7531 124.102 41.5669 124.256 42.2993C124.419 43.0236 124.663 43.6462 124.989 44.167C125.322 44.6878 125.745 45.0907 126.258 45.3755C126.771 45.6603 127.385 45.8027 128.101 45.8027C128.972 45.8027 129.676 45.6644 130.213 45.3877C130.759 45.111 131.169 44.7082 131.446 44.1792C131.731 43.6421 131.918 42.987 132.008 42.2139ZM144.788 30.2266V48H141.749V30.2266H144.788ZM150.367 30.2266V32.668H136.219V30.2266H150.367ZM159.461 41.3716H154.835V38.9424H159.461C160.267 38.9424 160.918 38.8122 161.414 38.5518C161.911 38.2913 162.273 37.9333 162.501 37.4775C162.737 37.0137 162.855 36.4847 162.855 35.8906C162.855 35.3291 162.737 34.8042 162.501 34.3159C162.273 33.8195 161.911 33.4207 161.414 33.1196C160.918 32.8185 160.267 32.668 159.461 32.668H155.775V48H152.711V30.2266H159.461C160.837 30.2266 162.004 30.4707 162.965 30.959C163.933 31.4391 164.67 32.1064 165.174 32.9609C165.679 33.8073 165.931 34.7757 165.931 35.8662C165.931 37.0137 165.679 37.9984 165.174 38.8203C164.67 39.6423 163.933 40.2729 162.965 40.7124C162.004 41.1519 160.837 41.3716 159.461 41.3716ZM174.22 41.811L178.736 30.2266H182.118L175.941 44.7773C175.745 45.2249 175.522 45.6603 175.269 46.0835C175.025 46.4985 174.728 46.8688 174.378 47.1943C174.028 47.5199 173.605 47.7803 173.109 47.9756C172.612 48.1628 172.01 48.2563 171.302 48.2563C171.115 48.2563 170.887 48.2482 170.619 48.2319C170.358 48.2157 170.167 48.1994 170.045 48.1831L170.069 45.7783C170.167 45.7946 170.33 45.8068 170.557 45.8149C170.793 45.8231 170.964 45.8271 171.07 45.8271C171.542 45.8271 171.917 45.7498 172.193 45.5952C172.47 45.4325 172.69 45.2168 172.852 44.9482C173.023 44.6715 173.174 44.3704 173.304 44.0449L174.22 41.811ZM170.826 30.2266L175.294 40.0654L176.173 43.2637L173.792 43.3491L167.481 30.2266H170.826ZM187.562 30.2266V48H184.51V30.2266H187.562ZM198.255 30.2266L191.029 40.3584H186.695L186.28 37.6973H189.332L194.508 30.2266H198.255ZM195.13 48L189.381 39.8945L191.358 37.5386L198.805 48H195.13ZM207.874 30.2266V48H204.835V30.2266H207.874ZM213.453 30.2266V32.668H199.305V30.2266H213.453ZM221.546 32.5947L216.236 48H213.026L219.715 30.2266H221.766L221.546 32.5947ZM225.99 48L220.667 32.5947L220.435 30.2266H222.498L229.212 48H225.99ZM225.733 41.4082V43.8374H216.065V41.4082H225.733ZM236.598 40.3096L230.018 30.2266H233.741L238.075 37.6606H241.273L240.846 40.3096H236.598ZM238.123 39.9189L233.46 48H229.652L235.841 37.8438L238.123 39.9189ZM243.043 30.2266V48H239.991V30.2266H243.043ZM252.894 30.2266L246.363 40.3096H242.176L241.749 37.6606H244.886L249.159 30.2266H252.894ZM249.439 48L244.849 39.9189L247.144 37.8438L253.248 48H249.439Z" fill="#F19239"/>
</svg>
