<svg width="12" height="12" viewBox="0 0 12 12" fill="none" xmlns="http://www.w3.org/2000/svg">
<path d="M9.39372 0.00081249H9.39128C9.38194 0.00081249 9.37137 0.000406269 9.36041 0.000406269C9.21741 0.000406269 9.07806 0.0154375 8.94319 0.043875L8.95619 0.0414375C8.68197 0.0853125 8.43578 0.176313 8.21559 0.306313L8.22534 0.301031C8.14937 0.346938 8.09575 0.423719 8.08113 0.513094L8.08072 0.514719L7.50222 4.15878C7.49978 4.17341 7.49856 4.19006 7.49856 4.20672C7.49856 4.29081 7.53269 4.36678 7.58794 4.42162C7.86378 4.69625 8.20341 4.90669 8.58284 5.02978L8.60072 5.03466C7.93447 6.66575 6.66534 7.93488 5.07691 8.58569L5.03425 8.60112C4.90628 8.20422 4.69584 7.86459 4.42122 7.58875C4.36597 7.5335 4.28919 7.49937 4.20509 7.49937C4.18844 7.49937 4.17219 7.50059 4.15675 7.50303L4.15838 7.50263L0.514313 8.08113C0.422906 8.09575 0.346531 8.14937 0.301437 8.22412L0.300625 8.22534C0.178344 8.43009 0.0889688 8.66978 0.0467188 8.92531L0.0450937 8.93709C0.01625 9.06506 0 9.21213 0 9.36325C0 9.37422 -2.9464e-08 9.38478 0.000406221 9.39575V9.39413C0.0105625 10.8148 1.16066 11.9637 2.58091 11.9722H2.58172C7.76587 11.9665 11.9669 7.76547 11.9726 2.58172V2.58131C11.9637 1.16025 10.8148 0.0105625 9.39494 0H9.39412L9.39372 0.00081249ZM2.58131 11.3636C1.49541 11.3563 0.617094 10.4784 0.609375 9.39331V9.3925C0.609375 9.38559 0.609375 9.37747 0.609375 9.36934C0.609375 9.25884 0.621562 9.15078 0.644312 9.04719L0.642281 9.05694C0.666656 8.90784 0.707687 8.77419 0.764562 8.64947L0.7605 8.65962L4.09216 8.13028C4.30706 8.38581 4.45859 8.70147 4.51913 9.04841L4.52075 9.06019C4.54716 9.204 4.67147 9.31166 4.82097 9.31166C4.85672 9.31166 4.89084 9.30556 4.92253 9.29419L4.9205 9.295C6.981 8.57472 8.57431 6.98141 9.27956 4.97047L9.29459 4.92131C9.30516 4.89166 9.31125 4.85753 9.31125 4.82178C9.31125 4.67228 9.20359 4.54797 9.06141 4.52197L9.05937 4.52156C8.70066 4.45941 8.385 4.30788 8.12662 4.09053L8.12947 4.09297L8.65881 0.761312C8.77906 0.706875 8.91881 0.664625 9.06466 0.640656L9.07441 0.639438C9.16256 0.62075 9.26372 0.610187 9.36731 0.610187C9.37503 0.610187 9.38275 0.610187 9.39047 0.610187H9.38925C10.4756 0.617094 11.3547 1.49541 11.3624 2.58131V2.58212C11.3567 7.42991 7.42828 11.3579 2.58131 11.3636H2.58091H2.58131Z" fill="white"/>
</svg>
