<svg width="128" height="128" viewBox="0 0 128 128" fill="none" xmlns="http://www.w3.org/2000/svg">
<circle cx="64" cy="64" r="64" fill="#FFCC78"/>
<path d="M111 59.5C111 50.0848 107.26 41.0553 100.602 34.3977C93.9448 27.7402 84.9152 24 75.5 24C66.0848 24 57.0553 27.7402 50.3977 34.3977C43.7402 41.0552 40 50.0848 40 59.5L75.5 59.5H111Z" fill="#F19239"/>
<path d="M25.5 56L48 55.5V59.5H36H30H24L24.5 57.5L25.5 56Z" fill="#F19239"/>
<path d="M81.5 60L85.5 63.5L77.5 82.5L65 94L66 91L78 77L81.5 60Z" fill="#E2E2E2"/>
<path d="M75.25 59H80.25L85.25 63H87.25L89.25 59H91.75V64.5L90 68L87 70L85.25 66.5L75.25 59Z" fill="#6C6C6C"/>
<path d="M59 59H64L69 63H71L73 59H75.5V64.5L73.75 68L70.75 70L69 66.5L59 59Z" fill="#6C6C6C"/>
<path d="M67.5 63L72 65L67 79L66 85V91L63 94V86.5L65.5 75.5L67.5 63Z" fill="#C4C4C4"/>
<circle cx="64.5" cy="92.5" r="2.5" fill="#ED1717"/>
</svg>
