<svg width="28" height="18" viewBox="0 0 28 18" fill="none" xmlns="http://www.w3.org/2000/svg">
<path fill-rule="evenodd" clip-rule="evenodd" d="M0.173457 0.266655C0.313468 0.0975751 0.519652 0 0.736905 0H5.92484C6.28579 0 6.59361 0.266099 6.65203 0.628604C6.86541 1.95274 7.5671 4.50936 9.21645 6.91019C9.44965 7.24979 9.36832 7.71734 9.03478 7.95464C8.70125 8.19209 8.24182 8.10929 8.0086 7.76984C6.43355 5.4771 5.64952 3.06622 5.31596 1.5H1.64653C2.27868 4.10698 4.01245 8.53499 6.62739 11.8797C8.06076 13.7131 9.61757 14.8894 10.9641 15.5967C12.3325 16.3155 13.4328 16.5247 13.9457 16.4977C13.9644 16.4968 13.9831 16.4965 14.002 16.497C14.2406 16.503 14.5306 16.4364 14.7461 16.2577C14.9334 16.1025 15.1608 15.7842 15.1608 15.069V12.7878C15.1608 12.3484 15.33 11.9046 15.6913 11.6199C16.0727 11.3191 16.5713 11.2761 17.0172 11.4864C17.4908 11.7097 18.0321 11.9952 18.3627 12.1764C18.3814 12.1867 18.3997 12.1977 18.4173 12.2095C20.0932 13.3284 21.7077 15.1254 22.7313 16.4598C22.7452 16.4778 22.7586 16.4872 22.7674 16.4919C22.7761 16.4962 22.7813 16.4967 22.7838 16.4967H26.4914C26.501 16.4967 26.5054 16.4953 26.5063 16.4952C26.5073 16.4947 26.5078 16.4946 26.5085 16.4941C26.5103 16.4928 26.5168 16.4874 26.5222 16.4751C26.5277 16.4628 26.5293 16.45 26.528 16.4394C26.5271 16.4317 26.5241 16.4166 26.5057 16.3939C25.5853 15.2589 24.3615 13.866 23.2952 12.6522C22.9167 12.2214 22.5581 11.8132 22.2399 11.4472C21.5041 10.6006 21.4507 9.35834 22.0174 8.42879C23.2592 6.39149 24.8935 3.46749 25.3977 1.5H22.3878C22.3858 1.5 22.3764 1.50001 22.3589 1.51258C22.34 1.52608 22.3152 1.55253 22.2968 1.59501C21.2467 4.00672 19.0334 6.98339 17.4227 8.47889C16.9721 8.89709 16.3664 8.96384 15.8758 8.67494C15.417 8.40479 15.1608 7.88834 15.1608 7.34009V1.5H11.2242C11.2771 1.59996 11.329 1.70248 11.3788 1.80693C11.6775 2.43214 11.9505 3.21072 11.9505 3.96223C11.9505 4.28347 11.953 4.76962 11.9561 5.33729C11.9639 6.81959 11.9746 8.85794 11.9502 9.96794C11.9412 10.3821 11.6038 10.7103 11.1971 10.701C10.7901 10.6917 10.4677 10.3485 10.4768 9.93434C10.5008 8.84684 10.4902 6.85844 10.4823 5.38034C10.4793 4.80085 10.4766 4.29978 10.4766 3.96223C10.4766 3.54319 10.3129 3.00603 10.0534 2.46295C9.79889 1.93021 9.49209 1.47427 9.29301 1.23682C9.10639 1.01425 9.06401 0.701549 9.18443 0.435854C9.30484 0.17016 9.56608 0 9.85356 0H15.8977C16.3048 0 16.6346 0.33579 16.6346 0.749999V7.17464C18.0888 5.74934 20.0319 3.09454 20.9493 0.987299C21.1899 0.434909 21.724 0 22.3878 0H25.407C26.3215 0 27.0823 0.858794 26.8296 1.85563C26.2662 4.07947 24.4985 7.20359 23.2697 9.21944C23.0231 9.62399 23.0676 10.1356 23.3438 10.4533C23.6507 10.8063 24.001 11.2051 24.3739 11.6295C25.445 12.8487 26.7016 14.2789 27.6424 15.4392C28.4498 16.4349 27.8146 17.9967 26.4914 17.9967H22.7838C22.2943 17.9967 21.8553 17.755 21.5697 17.3829C20.5927 16.1091 19.1063 14.4712 17.6353 13.4815C17.3755 13.3395 16.9963 13.1394 16.6346 12.9616V15.069C16.6346 16.1527 16.266 16.9324 15.6768 17.4208C15.1268 17.8767 14.4749 18.0037 13.994 17.9971C13.1289 18.0343 11.7761 17.7112 10.2882 16.9296C8.76255 16.1283 7.04123 14.8182 5.47412 12.8137C2.3678 8.84039 0.449367 3.47574 0.0106461 0.877004C-0.0261399 0.659069 0.0334311 0.435735 0.173457 0.266655ZM16.6383 12.7519C16.6385 12.7521 16.6382 12.753 16.6374 12.7548L16.6383 12.7519ZM16.3976 12.8473H16.3975H16.3976ZM16.6455 7.40354C16.6454 7.40354 16.6448 7.40264 16.6438 7.40069C16.6451 7.40249 16.6457 7.40339 16.6455 7.40354Z" fill="white"/>
</svg>
