<svg width="174" height="347" viewBox="0 0 174 347" fill="none" xmlns="http://www.w3.org/2000/svg">
<g filter="url(#filter0_d_34_137)">
<path fill-rule="evenodd" clip-rule="evenodd" d="M29.8806 23.9548C28.8439 22.6623 26.9431 22.439 25.6351 23.456L21.6266 26.5727L18.4678 22.6346C17.4311 21.3422 15.5303 21.1189 14.2223 22.1359L10.1908 25.2704C8.88284 26.2874 8.6629 28.1596 9.6996 29.452L12.8584 33.3902L8.0529 37.1266C6.74489 38.1436 6.52496 40.0158 7.56166 41.3082L10.7319 45.2605C11.7686 46.5529 13.6693 46.7762 14.9773 45.7592L19.7829 42.0228L23.5712 46.7457C24.6079 48.0382 26.5086 48.2615 27.8166 47.2445L31.8481 44.1099C33.1561 43.0929 33.376 41.2207 32.3393 39.9283L28.551 35.2054L32.5595 32.0887C33.8675 31.0717 34.0875 29.1995 33.0508 27.9071L29.8806 23.9548Z" fill="#E7882C"/>
</g>
<g filter="url(#filter1_d_34_137)">
<path fill-rule="evenodd" clip-rule="evenodd" d="M95.5593 75.6185C94.5226 74.3261 92.6218 74.1028 91.3138 75.1198L87.3053 78.2365L84.1465 74.2983C83.1098 73.0059 81.209 72.7826 79.901 73.7996L75.8696 76.9341C74.5616 77.9511 74.3416 79.8233 75.3783 81.1158L78.5372 85.0539L73.7316 88.7903C72.4236 89.8073 72.2037 91.6795 73.2404 92.9719L76.4106 96.9242C77.4473 98.2167 79.348 98.44 80.656 97.423L85.4616 93.6866L89.2499 98.4094C90.2866 99.7019 92.1873 99.9252 93.4953 98.9082L97.5268 95.7736C98.8348 94.7566 99.0547 92.8845 98.018 91.592L94.2297 86.8691L98.2383 83.7524C99.5463 82.7354 99.7662 80.8632 98.7295 79.5708L95.5593 75.6185Z" fill="#E7882C"/>
</g>
<g filter="url(#filter2_d_34_137)">
<path fill-rule="evenodd" clip-rule="evenodd" d="M162.595 8.6185C161.558 7.32605 159.658 7.10276 158.35 8.11976L154.341 11.2365L151.182 7.29834C150.146 6.00589 148.245 5.78259 146.937 6.79959L142.905 9.93413C141.597 10.9511 141.378 12.8233 142.414 14.1158L145.573 18.0539L140.767 21.7903C139.459 22.8073 139.24 24.6795 140.276 25.9719L143.446 29.9242C144.483 31.2167 146.384 31.44 147.692 30.423L152.497 26.6865L156.286 31.4094C157.322 32.7019 159.223 32.9252 160.531 31.9082L164.563 28.7736C165.871 27.7566 166.091 25.8845 165.054 24.592L161.266 19.8691L165.274 16.7524C166.582 15.7354 166.802 13.8632 165.765 12.5708L162.595 8.6185Z" fill="#E7882C"/>
</g>
<g filter="url(#filter3_d_34_137)">
<path fill-rule="evenodd" clip-rule="evenodd" d="M55.0108 181.346C55.0858 179.703 53.7947 178.312 52.1271 178.238L47.0292 178.012L47.2583 172.994C47.3333 171.352 46.0423 169.96 44.3747 169.887L39.2522 169.66C37.5846 169.586 36.1719 170.858 36.0969 172.501L35.8678 177.518L29.7552 177.248C28.0877 177.174 26.675 178.446 26.6 180.088L26.3699 185.129C26.2949 186.771 27.5859 188.163 29.2535 188.236L35.3661 188.507L35.0914 194.524C35.0164 196.166 36.3074 197.558 37.975 197.632L43.0975 197.858C44.7651 197.932 46.1778 196.66 46.2528 195.018L46.5275 189.001L51.6254 189.227C53.293 189.3 54.7056 188.029 54.7806 186.386L55.0108 181.346Z" fill="#E7882C"/>
</g>
<g filter="url(#filter4_d_34_137)">
<path fill-rule="evenodd" clip-rule="evenodd" d="M67.199 316.346C67.274 314.703 65.983 313.312 64.3154 313.238L59.2174 313.012L59.4465 307.994C59.5215 306.352 58.2305 304.96 56.5629 304.887L51.4404 304.66C49.7728 304.586 48.3602 305.858 48.2852 307.501L48.0561 312.518L41.9435 312.248C40.2759 312.174 38.8632 313.446 38.7882 315.088L38.5581 320.129C38.4831 321.771 39.7741 323.163 41.4417 323.236L47.5543 323.507L47.2796 329.524C47.2046 331.166 48.4957 332.558 50.1632 332.632L55.2857 332.858C56.9533 332.932 58.366 331.66 58.441 330.018L58.7157 324.001L63.8136 324.227C65.4812 324.3 66.8939 323.029 66.9689 321.386L67.199 316.346Z" fill="#E7882C"/>
</g>
<g filter="url(#filter5_d_34_137)">
<path fill-rule="evenodd" clip-rule="evenodd" d="M120.861 257.764C122.49 257.412 123.521 255.824 123.163 254.216L122.071 249.313L127.058 248.236C128.687 247.884 129.718 246.296 129.36 244.689L128.264 239.765C127.906 238.158 126.295 237.14 124.666 237.491L119.678 238.568L118.369 232.687C118.011 231.08 116.4 230.062 114.771 230.413L109.757 231.495C108.128 231.847 107.098 233.435 107.455 235.043L108.765 240.923L102.786 242.214C101.157 242.566 100.126 244.154 100.484 245.761L101.58 250.685C101.938 252.292 103.549 253.31 105.178 252.959L111.157 251.668L112.249 256.572C112.607 258.179 114.218 259.198 115.847 258.846L120.861 257.764Z" fill="#E7882C"/>
</g>
<defs>
<filter id="filter0_d_34_137" x="2.90784" y="21.4981" width="34.7968" height="34.3841" filterUnits="userSpaceOnUse" color-interpolation-filters="sRGB">
<feFlood flood-opacity="0" result="BackgroundImageFix"/>
<feColorMatrix in="SourceAlpha" type="matrix" values="0 0 0 0 0 0 0 0 0 0 0 0 0 0 0 0 0 0 127 0" result="hardAlpha"/>
<feOffset dy="4"/>
<feGaussianBlur stdDeviation="2"/>
<feComposite in2="hardAlpha" operator="out"/>
<feColorMatrix type="matrix" values="0 0 0 0 0 0 0 0 0 0 0 0 0 0 0 0 0 0 0.25 0"/>
<feBlend mode="normal" in2="BackgroundImageFix" result="effect1_dropShadow_34_137"/>
<feBlend mode="normal" in="SourceGraphic" in2="effect1_dropShadow_34_137" result="shape"/>
</filter>
<filter id="filter1_d_34_137" x="68.5865" y="73.1618" width="34.7968" height="34.3841" filterUnits="userSpaceOnUse" color-interpolation-filters="sRGB">
<feFlood flood-opacity="0" result="BackgroundImageFix"/>
<feColorMatrix in="SourceAlpha" type="matrix" values="0 0 0 0 0 0 0 0 0 0 0 0 0 0 0 0 0 0 127 0" result="hardAlpha"/>
<feOffset dy="4"/>
<feGaussianBlur stdDeviation="2"/>
<feComposite in2="hardAlpha" operator="out"/>
<feColorMatrix type="matrix" values="0 0 0 0 0 0 0 0 0 0 0 0 0 0 0 0 0 0 0.25 0"/>
<feBlend mode="normal" in2="BackgroundImageFix" result="effect1_dropShadow_34_137"/>
<feBlend mode="normal" in="SourceGraphic" in2="effect1_dropShadow_34_137" result="shape"/>
</filter>
<filter id="filter2_d_34_137" x="135.622" y="6.16183" width="34.7968" height="34.3841" filterUnits="userSpaceOnUse" color-interpolation-filters="sRGB">
<feFlood flood-opacity="0" result="BackgroundImageFix"/>
<feColorMatrix in="SourceAlpha" type="matrix" values="0 0 0 0 0 0 0 0 0 0 0 0 0 0 0 0 0 0 127 0" result="hardAlpha"/>
<feOffset dy="4"/>
<feGaussianBlur stdDeviation="2"/>
<feComposite in2="hardAlpha" operator="out"/>
<feColorMatrix type="matrix" values="0 0 0 0 0 0 0 0 0 0 0 0 0 0 0 0 0 0 0.25 0"/>
<feBlend mode="normal" in2="BackgroundImageFix" result="effect1_dropShadow_34_137"/>
<feBlend mode="normal" in="SourceGraphic" in2="effect1_dropShadow_34_137" result="shape"/>
</filter>
<filter id="filter3_d_34_137" x="22.3668" y="169.657" width="36.6471" height="36.2046" filterUnits="userSpaceOnUse" color-interpolation-filters="sRGB">
<feFlood flood-opacity="0" result="BackgroundImageFix"/>
<feColorMatrix in="SourceAlpha" type="matrix" values="0 0 0 0 0 0 0 0 0 0 0 0 0 0 0 0 0 0 127 0" result="hardAlpha"/>
<feOffset dy="4"/>
<feGaussianBlur stdDeviation="2"/>
<feComposite in2="hardAlpha" operator="out"/>
<feColorMatrix type="matrix" values="0 0 0 0 0 0 0 0 0 0 0 0 0 0 0 0 0 0 0.25 0"/>
<feBlend mode="normal" in2="BackgroundImageFix" result="effect1_dropShadow_34_137"/>
<feBlend mode="normal" in="SourceGraphic" in2="effect1_dropShadow_34_137" result="shape"/>
</filter>
<filter id="filter4_d_34_137" x="34.5551" y="304.657" width="36.6471" height="36.2046" filterUnits="userSpaceOnUse" color-interpolation-filters="sRGB">
<feFlood flood-opacity="0" result="BackgroundImageFix"/>
<feColorMatrix in="SourceAlpha" type="matrix" values="0 0 0 0 0 0 0 0 0 0 0 0 0 0 0 0 0 0 127 0" result="hardAlpha"/>
<feOffset dy="4"/>
<feGaussianBlur stdDeviation="2"/>
<feComposite in2="hardAlpha" operator="out"/>
<feColorMatrix type="matrix" values="0 0 0 0 0 0 0 0 0 0 0 0 0 0 0 0 0 0 0.25 0"/>
<feBlend mode="normal" in2="BackgroundImageFix" result="effect1_dropShadow_34_137"/>
<feBlend mode="normal" in="SourceGraphic" in2="effect1_dropShadow_34_137" result="shape"/>
</filter>
<filter id="filter5_d_34_137" x="96.413" y="230.344" width="37.0181" height="36.5715" filterUnits="userSpaceOnUse" color-interpolation-filters="sRGB">
<feFlood flood-opacity="0" result="BackgroundImageFix"/>
<feColorMatrix in="SourceAlpha" type="matrix" values="0 0 0 0 0 0 0 0 0 0 0 0 0 0 0 0 0 0 127 0" result="hardAlpha"/>
<feOffset dy="4"/>
<feGaussianBlur stdDeviation="2"/>
<feComposite in2="hardAlpha" operator="out"/>
<feColorMatrix type="matrix" values="0 0 0 0 0 0 0 0 0 0 0 0 0 0 0 0 0 0 0.25 0"/>
<feBlend mode="normal" in2="BackgroundImageFix" result="effect1_dropShadow_34_137"/>
<feBlend mode="normal" in="SourceGraphic" in2="effect1_dropShadow_34_137" result="shape"/>
</filter>
</defs>
</svg>
