<svg viewBox="0 0 2400 600" height="600" width="2400" xmlns="http://www.w3.org/2000/svg" version="1.1"><g transform-origin="center" transform="scale(1, 1) rotate(0)"><rect x="0" y="0" width="2400" height="600" fill="#00243800"></rect><linearGradient id="linear-gradient-r0"><stop offset="0%" stop-color="#36586C" stop-opacity="100%"></stop><stop offset="100%" stop-color="#F19239" stop-opacity="100%"></stop></linearGradient><filter id="shadow-r0" x="0" width="100%" y="-20%" height="150%"><feDropShadow dx="-12" dy="1" stdDeviation="8" flood-color="#00000061"></feDropShadow></filter><path d="M0 0 0,297.4137121376116 C 32.72727272727273,297.27529367279027 152.72727272727272,294.6216899272776 218.1818181818182,296.49092237213625 C 283.6363636363636,298.3601548169949 370.90909090909093,310.17582175504884 436.3636363636364,309.87526177000257 C 501.8181818181818,309.5747017849563 589.090909090909,298.4143593516504 654.5454545454545,294.48718913849444 C 720,290.5600189253385 807.2727272727273,290.38667947278356 872.7272727272727,283.69412701562976 C 938.1818181818182,277.00157455847597 1025.4545454545455,253.51665848345962 1090.909090909091,249.8701727574691 C 1156.3636363636365,246.22368703147862 1243.6363636363635,257.5382936676871 1309.090909090909,259.38422217569314 C 1374.5454545454545,261.2301506836992 1461.8181818181818,258.7643349819584 1527.2727272727273,262.1763628108427 C 1592.7272727272727,265.58839063972704 1680,279.0431646197266 1745.4545454545455,282.1310743682552 C 1810.909090909091,285.2189841167838 1898.1818181818182,284.8730394395557 1963.6363636363637,282.7624278010335 C 2029.0909090909092,280.65181616251124 2116.3636363636365,267.52008973237827 2181.818181818182,268.0603301114403 C 2247.2727272727275,268.6005704905023 2367.2727272727275,283.6184752956126 2400,286.3640303281136 L2400 600 L0 600Z" fill="none" stroke-linecap="round" stroke-width="1" style="transition: all 0.4s cubic-bezier(0.16, 1, 0.3, 1) 0s; fill: url(&quot;#linear-gradient-r0&quot;);" filter="url(#shadow-r0)"></path><path d="M0 0 0,401.6295473267945 C 32.72727272727273,404.3491311831695 152.72727272727275,420.1672479093215 218.1818181818182,419.76010636929425 C 283.6363636363636,419.352964829267 370.90909090909093,404.2350541572001 436.3636363636364,398.9152703932797 C 501.8181818181818,393.59548662935924 589.090909090909,393.3606792858274 654.5454545454545,384.2948812764914 C 720,375.22908326715543 807.2727272727273,343.41618276837437 872.7272727272727,338.4766169977064 C 938.1818181818182,333.53705122703843 1025.4545454545455,348.8639297200584 1090.909090909091,351.36444280537154 C 1156.3636363636365,353.86495589068466 1243.6363636363635,350.52473745783016 1309.090909090909,355.14670423312737 C 1374.5454545454545,359.7686710084246 1461.8181818181818,377.9946414352325 1527.2727272727273,382.17755464068614 C 1592.7272727272727,386.3604678461398 1680,385.8918477514549 1745.4545454545455,383.03279226948507 C 1810.909090909091,380.1737367875152 1898.1818181818182,362.3853697793209 1963.6363636363637,363.1171847608872 C 2029.0909090909092,363.8489997424535 2116.3636363636365,385.7749361497614 2181.818181818182,387.9115588132602 C 2247.2727272727275,390.04818147675905 2367.2727272727275,378.94386929523665 2400,377.3613358508795 L2400 600 L0 600Z" fill="none" stroke-linecap="round" stroke-width="1" style="transition: all 0.4s cubic-bezier(0.16, 1, 0.3, 1) 0s; fill: url(&quot;#linear-gradient-r0&quot;);" filter="url(#shadow-r0)"></path><path d="M0 0 0,529.6449509685859 C 32.72727272727273,525.6997110705078 152.72727272727275,510.0557489627499 218.1818181818182,503.3433516480649 C 283.6363636363636,496.63095433338 370.90909090909093,496.3346790988712 436.3636363636364,484.89563553735303 C 501.8181818181818,473.45659197583484 589.090909090909,433.3157070532892 654.5454545454545,427.0830612379437 C 720,420.85041542259825 807.2727272727273,440.1895657724298 872.7272727272727,443.34466343505 C 938.1818181818182,446.4997610976702 1025.4545454545455,442.28513993370194 1090.909090909091,448.11704565541197 C 1156.3636363636365,453.94895137712206 1243.6363636363635,476.9461182507384 1309.090909090909,482.22403491311707 C 1374.5454545454545,487.50195157549575 1461.8181818181818,486.9106560633541 1527.2727272727273,483.30315673793666 C 1592.7272727272727,479.6956574125192 1680,457.25064982626355 1745.4545454545455,458.1740394103341 C 1810.909090909091,459.09742899440465 1898.1818181818182,486.76313933032725 1963.6363636363637,489.4590872984069 C 2029.0909090909092,492.1550352664866 2116.3636363636365,481.6885277256416 2181.818181818182,476.1470258641988 C 2247.2727272727275,470.60552400275594 2367.2727272727275,456.06043420176644 2400,452.51574155545484 L2400 600 L0 600Z" fill="none" stroke-linecap="round" stroke-width="1" style="transition: all 0.4s cubic-bezier(0.16, 1, 0.3, 1) 0s; fill: url(&quot;#linear-gradient-r0&quot;);" filter="url(#shadow-r0)"></path></g></svg>